<?xml version="1.0" encoding="utf-8" ?>
<svg baseProfile="tiny" height="256px" version="1.2" width="256px" xmlns="http://www.w3.org/2000/svg" xmlns:ev="http://www.w3.org/2001/xml-events" xmlns:xlink="http://www.w3.org/1999/xlink"><defs /><rect fill="#311B92" height="256" rx="8" ry="8" width="256" x="0" y="0" /><line stroke="#FFFFFF" stroke-width="2" x1="68.0" x2="188.0" y1="68.0" y2="68.0" /><line stroke="#FFFFFF" stroke-width="2" x1="188.0" x2="188.0" y1="68.0" y2="188.0" /><line stroke="#FFFFFF" stroke-width="2" x1="188.0" x2="68.0" y1="188.0" y2="188.0" /><line stroke="#FFFFFF" stroke-width="2" x1="68.0" x2="68.0" y1="188.0" y2="68.0" /><line stroke="#FFFFFF" stroke-width="2" x1="108.0" x2="228.0" y1="28.0" y2="28.0" /><line stroke="#FFFFFF" stroke-width="2" x1="228.0" x2="228.0" y1="28.0" y2="148.0" /><line stroke="#FFFFFF" stroke-width="2" x1="228.0" x2="108.0" y1="148.0" y2="148.0" /><line stroke="#FFFFFF" stroke-width="2" x1="108.0" x2="108.0" y1="148.0" y2="28.0" /><line stroke="#FFFFFF" stroke-width="2" x1="68.0" x2="108.0" y1="68.0" y2="28.0" /><line stroke="#FFFFFF" stroke-width="2" x1="188.0" x2="228.0" y1="68.0" y2="28.0" /><line stroke="#FFFFFF" stroke-width="2" x1="188.0" x2="228.0" y1="188.0" y2="148.0" /><line stroke="#FFFFFF" stroke-width="2" x1="68.0" x2="108.0" y1="188.0" y2="148.0" /><circle cx="68.0" cy="68.0" fill="#03A9F4" r="4" /><circle cx="188.0" cy="68.0" fill="#03A9F4" r="4" /><circle cx="188.0" cy="188.0" fill="#03A9F4" r="4" /><circle cx="68.0" cy="188.0" fill="#03A9F4" r="4" /><circle cx="108.0" cy="28.0" fill="#03A9F4" r="4" /><circle cx="228.0" cy="28.0" fill="#03A9F4" r="4" /><circle cx="228.0" cy="148.0" fill="#03A9F4" r="4" /><circle cx="108.0" cy="148.0" fill="#03A9F4" r="4" /><line stroke="#03A9F4" stroke-dasharray="5,5" stroke-width="1.0" x1="68.0" x2="188.0" y1="68.0" y2="188.0" /><line stroke="#03A9F4" stroke-dasharray="5,5" stroke-width="1.0" x1="188.0" x2="68.0" y1="68.0" y2="188.0" /><line stroke="#03A9F4" stroke-dasharray="5,5" stroke-width="1.0" x1="108.0" x2="228.0" y1="28.0" y2="148.0" /><line stroke="#03A9F4" stroke-dasharray="5,5" stroke-width="1.0" x1="228.0" x2="108.0" y1="28.0" y2="148.0" /></svg>