<?xml version="1.0" encoding="utf-8" ?>
<svg baseProfile="tiny" height="256px" version="1.2" width="256px" xmlns="http://www.w3.org/2000/svg" xmlns:ev="http://www.w3.org/2001/xml-events" xmlns:xlink="http://www.w3.org/1999/xlink"><defs /><rect fill="#311B92" height="256" rx="8" ry="8" width="256" x="0" y="0" /><circle cx="16.0" cy="16.0" fill="#FFFFFF" r="12" stroke="#03A9F4" stroke-width="2" /><circle cx="16.0" cy="128.0" fill="#FFFFFF" r="12" stroke="#03A9F4" stroke-width="2" /><circle cx="16.0" cy="240.0" fill="#FFFFFF" r="12" stroke="#03A9F4" stroke-width="2" /><circle cx="128.0" cy="16.0" fill="#FFFFFF" r="12" stroke="#03A9F4" stroke-width="2" /><circle cx="128.0" cy="90.6667" fill="#FFFFFF" r="12" stroke="#03A9F4" stroke-width="2" /><circle cx="128.0" cy="165.3333" fill="#FFFFFF" r="12" stroke="#03A9F4" stroke-width="2" /><circle cx="128.0" cy="240.0" fill="#FFFFFF" r="12" stroke="#03A9F4" stroke-width="2" /><circle cx="240.0" cy="16.0" fill="#FFFFFF" r="12" stroke="#03A9F4" stroke-width="2" /><circle cx="240.0" cy="128.0" fill="#FFFFFF" r="12" stroke="#03A9F4" stroke-width="2" /><circle cx="240.0" cy="240.0" fill="#FFFFFF" r="12" stroke="#03A9F4" stroke-width="2" /><line stroke="#03A9F4" stroke-width="1.0" x1="16.0" x2="128.0" y1="16.0" y2="16.0" /><line stroke="#03A9F4" stroke-width="1.0" x1="16.0" x2="128.0" y1="16.0" y2="90.6667" /><line stroke="#03A9F4" stroke-width="1.0" x1="16.0" x2="128.0" y1="16.0" y2="165.3333" /><line stroke="#03A9F4" stroke-width="1.0" x1="16.0" x2="128.0" y1="16.0" y2="240.0" /><line stroke="#03A9F4" stroke-width="1.0" x1="16.0" x2="128.0" y1="128.0" y2="16.0" /><line stroke="#03A9F4" stroke-width="1.0" x1="16.0" x2="128.0" y1="128.0" y2="90.6667" /><line stroke="#03A9F4" stroke-width="1.0" x1="16.0" x2="128.0" y1="128.0" y2="165.3333" /><line stroke="#03A9F4" stroke-width="1.0" x1="16.0" x2="128.0" y1="128.0" y2="240.0" /><line stroke="#03A9F4" stroke-width="1.0" x1="16.0" x2="128.0" y1="240.0" y2="16.0" /><line stroke="#03A9F4" stroke-width="1.0" x1="16.0" x2="128.0" y1="240.0" y2="90.6667" /><line stroke="#03A9F4" stroke-width="1.0" x1="16.0" x2="128.0" y1="240.0" y2="165.3333" /><line stroke="#03A9F4" stroke-width="1.0" x1="16.0" x2="128.0" y1="240.0" y2="240.0" /><line stroke="#03A9F4" stroke-width="1.0" x1="128.0" x2="240.0" y1="16.0" y2="16.0" /><line stroke="#03A9F4" stroke-width="1.0" x1="128.0" x2="240.0" y1="16.0" y2="128.0" /><line stroke="#03A9F4" stroke-width="1.0" x1="128.0" x2="240.0" y1="16.0" y2="240.0" /><line stroke="#03A9F4" stroke-width="1.0" x1="128.0" x2="240.0" y1="90.6667" y2="16.0" /><line stroke="#03A9F4" stroke-width="1.0" x1="128.0" x2="240.0" y1="90.6667" y2="128.0" /><line stroke="#03A9F4" stroke-width="1.0" x1="128.0" x2="240.0" y1="90.6667" y2="240.0" /><line stroke="#03A9F4" stroke-width="1.0" x1="128.0" x2="240.0" y1="165.3333" y2="16.0" /><line stroke="#03A9F4" stroke-width="1.0" x1="128.0" x2="240.0" y1="165.3333" y2="128.0" /><line stroke="#03A9F4" stroke-width="1.0" x1="128.0" x2="240.0" y1="165.3333" y2="240.0" /><line stroke="#03A9F4" stroke-width="1.0" x1="128.0" x2="240.0" y1="240.0" y2="16.0" /><line stroke="#03A9F4" stroke-width="1.0" x1="128.0" x2="240.0" y1="240.0" y2="128.0" /><line stroke="#03A9F4" stroke-width="1.0" x1="128.0" x2="240.0" y1="240.0" y2="240.0" /></svg>