<?xml version="1.0" encoding="utf-8" ?>
<svg baseProfile="tiny" height="256px" version="1.2" width="256px" xmlns="http://www.w3.org/2000/svg" xmlns:ev="http://www.w3.org/2001/xml-events" xmlns:xlink="http://www.w3.org/1999/xlink"><defs /><rect fill="#311B92" height="256" rx="8" ry="8" width="256" x="0" y="0" /><rect fill="#FFFFFF" height="180" rx="10" ry="10" stroke="#03A9F4" stroke-width="2" width="140" x="58.0" y="38.0" /><rect fill="#311B92" fill-opacity="0.3" height="160" stroke="#FFFFFF" stroke-width="1.0" width="120" x="68.0" y="48.0" /><circle cx="128.0" cy="198.0" fill="none" r="8" stroke="#FFFFFF" stroke-width="1.0" /><rect fill="#03A9F4" fill-opacity="0.2" height="100.0" width="120" x="68.0" y="48.0" /><rect fill="#311B92" fill-opacity="0.2" height="60.0" width="120" x="68.0" y="148.0" /><rect fill="#03A9F4" fill-opacity="0.7" height="50" stroke="#FFFFFF" stroke-width="1.0" width="50" x="98.0" y="88.0" /><polygon fill="#03A9F4" fill-opacity="0.9" points="98.0,88.0 110.5,75.5 160.5,75.5 148.0,88.0" stroke="#FFFFFF" stroke-width="1.0" /><polygon fill="#03A9F4" fill-opacity="0.5" points="148.0,88.0 160.5,75.5 160.5,125.5 148.0,138.0" stroke="#FFFFFF" stroke-width="1.0" /><text fill="#FFFFFF" font-size="12px" text-anchor="middle" x="123.0" y="68.0">AR OBJECT</text><circle cx="168.0" cy="118.0" fill="#FFFFFF" r="5" stroke="#03A9F4" stroke-width="1.0" /><text fill="#FFFFFF" font-size="10px" x="178.0" y="113.0">P1</text><line stroke="#FFFFFF" stroke-dasharray="3,3" stroke-width="0.5" x1="168.0" x2="123.0" y1="118.0" y2="113.0" /><circle cx="68.0" cy="138.0" fill="#FFFFFF" r="5" stroke="#03A9F4" stroke-width="1.0" /><text fill="#FFFFFF" font-size="10px" x="78.0" y="133.0">P2</text><line stroke="#FFFFFF" stroke-dasharray="3,3" stroke-width="0.5" x1="68.0" x2="123.0" y1="138.0" y2="113.0" /><circle cx="148.0" cy="188.0" fill="#FFFFFF" r="5" stroke="#03A9F4" stroke-width="1.0" /><text fill="#FFFFFF" font-size="10px" x="158.0" y="183.0">P3</text><line stroke="#FFFFFF" stroke-dasharray="3,3" stroke-width="0.5" x1="148.0" x2="123.0" y1="188.0" y2="113.0" /></svg>