<?xml version="1.0" encoding="utf-8" ?>
<svg baseProfile="tiny" height="256px" version="1.2" width="256px" xmlns="http://www.w3.org/2000/svg" xmlns:ev="http://www.w3.org/2001/xml-events" xmlns:xlink="http://www.w3.org/1999/xlink"><defs /><rect fill="#311B92" height="256" rx="8" ry="8" width="256" x="0" y="0" /><rect fill="#FFFFFF" height="120" stroke="#03A9F4" stroke-width="2" width="160" x="48.0" y="108.0" /><polygon fill="#03A9F4" points="38.0,108.0 128.0,58.0 218.0,108.0" stroke="#FFFFFF" stroke-width="2" /><rect fill="#311B92" fill-opacity="0.3" height="100" stroke="#FFFFFF" stroke-width="1.0" width="20" x="58.0" y="118.0" /><rect fill="#FFFFFF" height="10" stroke="#03A9F4" stroke-width="1.0" width="24" x="56.0" y="113.0" /><rect fill="#FFFFFF" height="10" stroke="#03A9F4" stroke-width="1.0" width="24" x="56.0" y="213.0" /><rect fill="#311B92" fill-opacity="0.3" height="100" stroke="#FFFFFF" stroke-width="1.0" width="20" x="88.0" y="118.0" /><rect fill="#FFFFFF" height="10" stroke="#03A9F4" stroke-width="1.0" width="24" x="86.0" y="113.0" /><rect fill="#FFFFFF" height="10" stroke="#03A9F4" stroke-width="1.0" width="24" x="86.0" y="213.0" /><rect fill="#311B92" fill-opacity="0.3" height="100" stroke="#FFFFFF" stroke-width="1.0" width="20" x="118.0" y="118.0" /><rect fill="#FFFFFF" height="10" stroke="#03A9F4" stroke-width="1.0" width="24" x="116.0" y="113.0" /><rect fill="#FFFFFF" height="10" stroke="#03A9F4" stroke-width="1.0" width="24" x="116.0" y="213.0" /><rect fill="#311B92" fill-opacity="0.3" height="100" stroke="#FFFFFF" stroke-width="1.0" width="20" x="148.0" y="118.0" /><rect fill="#FFFFFF" height="10" stroke="#03A9F4" stroke-width="1.0" width="24" x="146.0" y="113.0" /><rect fill="#FFFFFF" height="10" stroke="#03A9F4" stroke-width="1.0" width="24" x="146.0" y="213.0" /><rect fill="#311B92" fill-opacity="0.3" height="100" stroke="#FFFFFF" stroke-width="1.0" width="20" x="178.0" y="118.0" /><rect fill="#FFFFFF" height="10" stroke="#03A9F4" stroke-width="1.0" width="24" x="176.0" y="113.0" /><rect fill="#FFFFFF" height="10" stroke="#03A9F4" stroke-width="1.0" width="24" x="176.0" y="213.0" /><rect fill="#FFFFFF" height="10" stroke="#03A9F4" stroke-width="1.0" width="128.0" x="64.0" y="183.0" /><rect fill="#FFFFFF" height="10" stroke="#03A9F4" stroke-width="1.0" width="112.0" x="72.0" y="173.0" /><rect fill="#FFFFFF" height="10" stroke="#03A9F4" stroke-width="1.0" width="96.0" x="80.0" y="163.0" /><text fill="#03A9F4" font-size="60px" font-weight="bold" text-anchor="middle" x="128.0" y="143.0">$</text></svg>