<?xml version="1.0" encoding="utf-8" ?>
<svg baseProfile="tiny" height="256px" version="1.2" width="256px" xmlns="http://www.w3.org/2000/svg" xmlns:ev="http://www.w3.org/2001/xml-events" xmlns:xlink="http://www.w3.org/1999/xlink"><defs /><rect fill="#311B92" height="256" rx="8" ry="8" width="256" x="0" y="0" /><ellipse cx="128.0" cy="128.0" fill="none" rx="80.0" ry="40.0" stroke="#FFFFFF" stroke-width="3.0" /><circle cx="128.0" cy="128.0" fill="#03A9F4" r="30.0" stroke="#FFFFFF" stroke-width="2" /><circle cx="128.0" cy="128.0" fill="#FFFFFF" r="15.0" /><rect fill="#FFFFFF" fill-opacity="0.7" height="10" width="10" x="168.0" y="88.0" /><rect fill="#FFFFFF" fill-opacity="0.7" height="10" width="10" x="188.0" y="88.0" /><rect fill="#FFFFFF" fill-opacity="0.7" height="10" width="10" x="208.0" y="88.0" /><rect fill="#FFFFFF" fill-opacity="0.7" height="10" width="10" x="228.0" y="88.0" /><rect fill="#FFFFFF" fill-opacity="0.7" height="10" width="10" x="178.0" y="98.0" /><rect fill="#FFFFFF" fill-opacity="0.7" height="10" width="10" x="198.0" y="98.0" /><rect fill="#FFFFFF" fill-opacity="0.7" height="10" width="10" x="218.0" y="98.0" /><rect fill="#FFFFFF" fill-opacity="0.7" height="10" width="10" x="238.0" y="98.0" /><rect fill="#FFFFFF" fill-opacity="0.7" height="10" width="10" x="168.0" y="108.0" /><rect fill="#FFFFFF" fill-opacity="0.7" height="10" width="10" x="188.0" y="108.0" /><rect fill="#FFFFFF" fill-opacity="0.7" height="10" width="10" x="208.0" y="108.0" /><rect fill="#FFFFFF" fill-opacity="0.7" height="10" width="10" x="228.0" y="108.0" /><rect fill="#FFFFFF" fill-opacity="0.7" height="10" width="10" x="178.0" y="118.0" /><rect fill="#FFFFFF" fill-opacity="0.7" height="10" width="10" x="198.0" y="118.0" /><rect fill="#FFFFFF" fill-opacity="0.7" height="10" width="10" x="218.0" y="118.0" /><rect fill="#FFFFFF" fill-opacity="0.7" height="10" width="10" x="238.0" y="118.0" /><rect fill="#FFFFFF" fill-opacity="0.7" height="10" width="10" x="168.0" y="128.0" /><rect fill="#FFFFFF" fill-opacity="0.7" height="10" width="10" x="188.0" y="128.0" /><rect fill="#FFFFFF" fill-opacity="0.7" height="10" width="10" x="208.0" y="128.0" /><rect fill="#FFFFFF" fill-opacity="0.7" height="10" width="10" x="228.0" y="128.0" /><rect fill="#FFFFFF" fill-opacity="0.7" height="10" width="10" x="178.0" y="138.0" /><rect fill="#FFFFFF" fill-opacity="0.7" height="10" width="10" x="198.0" y="138.0" /><rect fill="#FFFFFF" fill-opacity="0.7" height="10" width="10" x="218.0" y="138.0" /><rect fill="#FFFFFF" fill-opacity="0.7" height="10" width="10" x="238.0" y="138.0" /><rect fill="#FFFFFF" fill-opacity="0.7" height="10" width="10" x="168.0" y="148.0" /><rect fill="#FFFFFF" fill-opacity="0.7" height="10" width="10" x="188.0" y="148.0" /><rect fill="#FFFFFF" fill-opacity="0.7" height="10" width="10" x="208.0" y="148.0" /><rect fill="#FFFFFF" fill-opacity="0.7" height="10" width="10" x="228.0" y="148.0" /><rect fill="#FFFFFF" fill-opacity="0.7" height="10" width="10" x="178.0" y="158.0" /><rect fill="#FFFFFF" fill-opacity="0.7" height="10" width="10" x="198.0" y="158.0" /><rect fill="#FFFFFF" fill-opacity="0.7" height="10" width="10" x="218.0" y="158.0" /><rect fill="#FFFFFF" fill-opacity="0.7" height="10" width="10" x="238.0" y="158.0" /></svg>