<?xml version="1.0" encoding="utf-8" ?>
<svg baseProfile="tiny" height="256px" version="1.2" width="256px" xmlns="http://www.w3.org/2000/svg" xmlns:ev="http://www.w3.org/2001/xml-events" xmlns:xlink="http://www.w3.org/1999/xlink"><defs /><rect fill="#311B92" height="256" rx="8" ry="8" width="256" x="0" y="0" /><circle cx="128.0" cy="128.0" fill="#FFFFFF" r="80" stroke="#03A9F4" stroke-width="2" /><path d="M128.0,128.0 L128.0,48.0 A80,80 0 0,1 58.7179676972449,88.0 Z" fill="#03A9F4" fill-opacity="0.8" /><path d="M128.0,128.0 L58.7179676972449,88.0 A80,80 0 0,1 87.99999999999997,197.28203230275506 Z" fill="#311B92" fill-opacity="0.5" /><path d="M128.0,128.0 L87.99999999999997,197.28203230275506 A80,80 0 0,1 128.0,48.0 Z" fill="#03A9F4" fill-opacity="0.3" /><circle cx="192.0" cy="128.0" fill="#FFFFFF" r="5" stroke="#311B92" stroke-width="1.0" /><circle cx="173.2548" cy="173.2548" fill="#FFFFFF" r="5" stroke="#311B92" stroke-width="1.0" /><circle cx="128.0" cy="192.0" fill="#FFFFFF" r="5" stroke="#311B92" stroke-width="1.0" /><circle cx="82.7452" cy="173.2548" fill="#FFFFFF" r="5" stroke="#311B92" stroke-width="1.0" /><circle cx="64.0" cy="128.0" fill="#FFFFFF" r="5" stroke="#311B92" stroke-width="1.0" /><circle cx="82.7452" cy="82.7452" fill="#FFFFFF" r="5" stroke="#311B92" stroke-width="1.0" /><circle cx="128.0" cy="64.0" fill="#FFFFFF" r="5" stroke="#311B92" stroke-width="1.0" /><circle cx="173.2548" cy="82.7452" fill="#FFFFFF" r="5" stroke="#311B92" stroke-width="1.0" /><line stroke="#311B92" stroke-dasharray="3,3" stroke-width="1.0" x1="192.0" x2="128.0" y1="128.0" y2="192.0" /><line stroke="#311B92" stroke-dasharray="3,3" stroke-width="1.0" x1="173.2548" x2="82.7452" y1="173.2548" y2="173.2548" /><line stroke="#311B92" stroke-dasharray="3,3" stroke-width="1.0" x1="128.0" x2="64.0" y1="192.0" y2="128.0" /><line stroke="#311B92" stroke-dasharray="3,3" stroke-width="1.0" x1="82.7452" x2="82.7452" y1="173.2548" y2="82.7452" /><line stroke="#311B92" stroke-dasharray="3,3" stroke-width="1.0" x1="64.0" x2="128.0" y1="128.0" y2="64.0" /><line stroke="#311B92" stroke-dasharray="3,3" stroke-width="1.0" x1="82.7452" x2="173.2548" y1="82.7452" y2="82.7452" /><line stroke="#311B92" stroke-dasharray="3,3" stroke-width="1.0" x1="128.0" x2="192.0" y1="64.0" y2="128.0" /><line stroke="#311B92" stroke-dasharray="3,3" stroke-width="1.0" x1="173.2548" x2="173.2548" y1="82.7452" y2="173.2548" /></svg>