<?xml version="1.0" encoding="utf-8" ?>
<svg baseProfile="tiny" height="256px" version="1.2" width="256px" xmlns="http://www.w3.org/2000/svg" xmlns:ev="http://www.w3.org/2001/xml-events" xmlns:xlink="http://www.w3.org/1999/xlink"><defs /><rect fill="#311B92" height="256" rx="8" ry="8" width="256" x="0" y="0" /><ellipse cx="128.0" cy="108.0" fill="#311B92" fill-opacity="0.5" rx="60.0" ry="10.0" stroke="#FFFFFF" stroke-width="2" /><rect fill="#311B92" fill-opacity="0.3" height="40" stroke="#FFFFFF" stroke-width="2" width="120" x="68.0" y="68.0" /><ellipse cx="128.0" cy="68.0" fill="#03A9F4" fill-opacity="0.5" rx="60.0" ry="10.0" stroke="#FFFFFF" stroke-width="2" /><line stroke="#FFFFFF" stroke-opacity="0.7" stroke-width="1.0" x1="88.0" x2="168.0" y1="78.0" y2="78.0" /><line stroke="#FFFFFF" stroke-opacity="0.7" stroke-width="1.0" x1="88.0" x2="168.0" y1="88.0" y2="88.0" /><line stroke="#FFFFFF" stroke-opacity="0.7" stroke-width="1.0" x1="88.0" x2="168.0" y1="98.0" y2="98.0" /><ellipse cx="128.0" cy="158.0" fill="#311B92" fill-opacity="0.5" rx="60.0" ry="10.0" stroke="#FFFFFF" stroke-width="2" /><rect fill="#311B92" fill-opacity="0.3" height="40" stroke="#FFFFFF" stroke-width="2" width="120" x="68.0" y="118.0" /><ellipse cx="128.0" cy="118.0" fill="#03A9F4" fill-opacity="0.5" rx="60.0" ry="10.0" stroke="#FFFFFF" stroke-width="2" /><line stroke="#FFFFFF" stroke-opacity="0.7" stroke-width="1.0" x1="88.0" x2="168.0" y1="128.0" y2="128.0" /><line stroke="#FFFFFF" stroke-opacity="0.7" stroke-width="1.0" x1="88.0" x2="168.0" y1="138.0" y2="138.0" /><line stroke="#FFFFFF" stroke-opacity="0.7" stroke-width="1.0" x1="88.0" x2="168.0" y1="148.0" y2="148.0" /><ellipse cx="128.0" cy="208.0" fill="#311B92" fill-opacity="0.5" rx="60.0" ry="10.0" stroke="#FFFFFF" stroke-width="2" /><rect fill="#311B92" fill-opacity="0.3" height="40" stroke="#FFFFFF" stroke-width="2" width="120" x="68.0" y="168.0" /><ellipse cx="128.0" cy="168.0" fill="#03A9F4" fill-opacity="0.5" rx="60.0" ry="10.0" stroke="#FFFFFF" stroke-width="2" /><line stroke="#FFFFFF" stroke-opacity="0.7" stroke-width="1.0" x1="88.0" x2="168.0" y1="178.0" y2="178.0" /><line stroke="#FFFFFF" stroke-opacity="0.7" stroke-width="1.0" x1="88.0" x2="168.0" y1="188.0" y2="188.0" /><line stroke="#FFFFFF" stroke-opacity="0.7" stroke-width="1.0" x1="88.0" x2="168.0" y1="198.0" y2="198.0" /><line stroke="#FFFFFF" stroke-dasharray="3,3" stroke-width="1.0" x1="98.0" x2="98.0" y1="118.0" y2="108.0" /><line stroke="#FFFFFF" stroke-dasharray="3,3" stroke-width="1.0" x1="128.0" x2="128.0" y1="118.0" y2="108.0" /><line stroke="#FFFFFF" stroke-dasharray="3,3" stroke-width="1.0" x1="158.0" x2="158.0" y1="118.0" y2="108.0" /><line stroke="#FFFFFF" stroke-dasharray="3,3" stroke-width="1.0" x1="98.0" x2="98.0" y1="168.0" y2="158.0" /><line stroke="#FFFFFF" stroke-dasharray="3,3" stroke-width="1.0" x1="128.0" x2="128.0" y1="168.0" y2="158.0" /><line stroke="#FFFFFF" stroke-dasharray="3,3" stroke-width="1.0" x1="158.0" x2="158.0" y1="168.0" y2="158.0" /><text fill="#FFFFFF" font-size="20px" font-weight="bold" x="48.0" y="48.0">#</text><text fill="#FFFFFF" font-size="20px" font-weight="bold" x="208.0" y="68.0">@</text><text fill="#FFFFFF" font-size="20px" font-weight="bold" x="38.0" y="198.0">$</text><text fill="#FFFFFF" font-size="20px" font-weight="bold" x="218.0" y="208.0">&amp;</text><text fill="#FFFFFF" font-size="20px" font-weight="bold" x="188.0" y="148.0">%</text></svg>