<?xml version="1.0" encoding="utf-8" ?>
<svg baseProfile="tiny" height="256px" version="1.2" width="256px" xmlns="http://www.w3.org/2000/svg" xmlns:ev="http://www.w3.org/2001/xml-events" xmlns:xlink="http://www.w3.org/1999/xlink"><defs /><rect fill="#311B92" height="256" rx="8" ry="8" width="256" x="0" y="0" /><rect fill="#FFFFFF" height="180" rx="2" ry="2" stroke="#03A9F4" stroke-width="2" width="140" x="58.0" y="38.0" /><rect fill="#F5F5F5" height="6" rx="2" ry="2" width="110" x="73.0" y="68.0" /><rect fill="#F5F5F5" height="6" rx="2" ry="2" width="110" x="73.0" y="84.0" /><rect fill="#F5F5F5" height="6" rx="2" ry="2" width="110" x="73.0" y="100.0" /><rect fill="#F5F5F5" height="6" rx="2" ry="2" width="110" x="73.0" y="116.0" /><rect fill="#F5F5F5" height="6" rx="2" ry="2" width="110" x="73.0" y="132.0" /><rect fill="#F5F5F5" height="6" rx="2" ry="2" width="66.0" x="73.0" y="148.0" /><circle cx="158.0" cy="178.0" fill="none" r="30" stroke="#03A9F4" stroke-width="3.0" /><line stroke="#03A9F4" stroke-width="3.0" x1="179.2132" x2="182.7487" y1="199.2132" y2="202.7487" /><line stroke="#03A9F4" stroke-width="2" x1="143.0" x2="173.0" y1="178.0" y2="178.0" /><line stroke="#03A9F4" stroke-width="2" x1="158.0" x2="158.0" y1="163.0" y2="193.0" /></svg>