<?xml version="1.0" encoding="utf-8" ?>
<svg baseProfile="tiny" height="256px" version="1.2" width="256px" xmlns="http://www.w3.org/2000/svg" xmlns:ev="http://www.w3.org/2001/xml-events" xmlns:xlink="http://www.w3.org/1999/xlink"><defs /><rect fill="#311B92" height="256" rx="8" ry="8" width="256" x="0" y="0" /><rect fill="#FFFFFF" height="30" stroke="#03A9F4" stroke-width="2" width="160" x="48.0" y="108.0" /><polygon fill="#FFFFFF" points="48.0,108.0 128.0,58.0 208.0,108.0" stroke="#03A9F4" stroke-width="2" /><polyline fill="none" points="128.0,58.0 148.0,78.0 158.0,108.0 168.0,138.0" stroke="#03A9F4" stroke-linecap="round" stroke-linejoin="round" stroke-width="2" /><circle cx="168.0" cy="148.0" fill="#03A9F4" r="10" stroke="#FFFFFF" stroke-width="1.0" /><rect fill="#03A9F4" fill-opacity="0.7" height="20" stroke="#FFFFFF" stroke-width="1.0" width="100" x="78.0" y="168.0" /><rect fill="#FFFFFF" height="20" stroke="#FFFFFF" stroke-width="1.0" width="10" x="78.0" y="168.0" /><rect fill="#311B92" fill-opacity="0.5" height="20" stroke="#FFFFFF" stroke-width="1.0" width="100" x="88.0" y="188.0" /><rect fill="#03A9F4" height="20" stroke="#FFFFFF" stroke-width="1.0" width="10" x="88.0" y="188.0" /><rect fill="#03A9F4" fill-opacity="0.7" height="20" stroke="#FFFFFF" stroke-width="1.0" width="100" x="98.0" y="208.0" /><rect fill="#FFFFFF" height="20" stroke="#FFFFFF" stroke-width="1.0" width="10" x="98.0" y="208.0" /><circle cx="68.0" cy="178.0" fill="#03A9F4" r="15" stroke="#FFFFFF" stroke-width="1.0" /><line stroke="#FFFFFF" stroke-width="2" x1="68.0" x2="68.0" y1="163.0" y2="153.0" /><ellipse cx="73.0" cy="158.0" fill="#311B92" fill-opacity="0.7" rx="8" ry="5" stroke="#FFFFFF" stroke-width="1.0" /></svg>