<?xml version="1.0" encoding="utf-8" ?>
<svg baseProfile="tiny" height="256px" version="1.2" width="256px" xmlns="http://www.w3.org/2000/svg" xmlns:ev="http://www.w3.org/2001/xml-events" xmlns:xlink="http://www.w3.org/1999/xlink"><defs /><rect fill="#311B92" height="256" rx="8" ry="8" width="256" x="0" y="0" /><rect fill="#FFFFFF" height="160" rx="10" ry="10" stroke="#03A9F4" stroke-width="2" width="50" x="103.0" y="48.0" /><rect fill="#FFFFFF" height="50" rx="10" ry="10" stroke="#03A9F4" stroke-width="2" width="160" x="48.0" y="103.0" /><rect fill="#311B92" fill-opacity="0.2" height="60" rx="5" ry="5" stroke="#FFFFFF" stroke-width="1.0" width="180" x="38.0" y="168.0" /><polyline fill="none" points="48.0,198.0 83.0,198.0 78.0,178.0 88.0,218.0 98.0,188.0 128.0,198.0 173.0,198.0 168.0,178.0 178.0,218.0 188.0,188.0 208.0,198.0" stroke="#03A9F4" stroke-linecap="round" stroke-linejoin="round" stroke-width="2" /><circle cx="68.0" cy="68.0" fill="#03A9F4" fill-opacity="0.7" r="25" stroke="#FFFFFF" stroke-width="2" /><polyline fill="none" points="68.0,93.0 68.0,113.0 108.0,133.0 168.0,133.0 188.0,113.0 188.0,48.0" stroke="#FFFFFF" stroke-linecap="round" stroke-linejoin="round" stroke-width="3.0" /></svg>