<?xml version="1.0" encoding="utf-8" ?>
<svg baseProfile="tiny" height="256px" version="1.2" width="256px" xmlns="http://www.w3.org/2000/svg" xmlns:ev="http://www.w3.org/2001/xml-events" xmlns:xlink="http://www.w3.org/1999/xlink"><defs /><rect fill="#311B92" height="256" rx="8" ry="8" width="256" x="0" y="0" /><line stroke="#FFFFFF" stroke-width="3.0" x1="128.0" x2="128.0" y1="58.0" y2="88.0" /><line stroke="#FFFFFF" stroke-width="3.0" x1="128.0" x2="98.0" y1="88.0" y2="98.0" /><line stroke="#FFFFFF" stroke-width="3.0" x1="128.0" x2="158.0" y1="88.0" y2="98.0" /><line stroke="#FFFFFF" stroke-width="3.0" x1="98.0" x2="78.0" y1="98.0" y2="128.0" /><line stroke="#FFFFFF" stroke-width="3.0" x1="158.0" x2="178.0" y1="98.0" y2="128.0" /><line stroke="#FFFFFF" stroke-width="3.0" x1="78.0" x2="88.0" y1="128.0" y2="158.0" /><line stroke="#FFFFFF" stroke-width="3.0" x1="178.0" x2="188.0" y1="128.0" y2="158.0" /><line stroke="#FFFFFF" stroke-width="3.0" x1="128.0" x2="128.0" y1="88.0" y2="128.0" /><line stroke="#FFFFFF" stroke-width="3.0" x1="128.0" x2="108.0" y1="128.0" y2="158.0" /><line stroke="#FFFFFF" stroke-width="3.0" x1="128.0" x2="148.0" y1="128.0" y2="158.0" /><line stroke="#FFFFFF" stroke-width="3.0" x1="108.0" x2="98.0" y1="158.0" y2="198.0" /><line stroke="#FFFFFF" stroke-width="3.0" x1="148.0" x2="158.0" y1="158.0" y2="198.0" /><line stroke="#FFFFFF" stroke-width="3.0" x1="98.0" x2="88.0" y1="198.0" y2="238.0" /><line stroke="#FFFFFF" stroke-width="3.0" x1="158.0" x2="148.0" y1="198.0" y2="238.0" /><circle cx="128.0" cy="58.0" fill="#03A9F4" r="5" stroke="#FFFFFF" stroke-width="1.0" /><circle cx="128.0" cy="88.0" fill="#03A9F4" r="5" stroke="#FFFFFF" stroke-width="1.0" /><circle cx="98.0" cy="98.0" fill="#03A9F4" r="5" stroke="#FFFFFF" stroke-width="1.0" /><circle cx="158.0" cy="98.0" fill="#03A9F4" r="5" stroke="#FFFFFF" stroke-width="1.0" /><circle cx="78.0" cy="128.0" fill="#03A9F4" r="5" stroke="#FFFFFF" stroke-width="1.0" /><circle cx="178.0" cy="128.0" fill="#03A9F4" r="5" stroke="#FFFFFF" stroke-width="1.0" /><circle cx="88.0" cy="158.0" fill="#03A9F4" r="5" stroke="#FFFFFF" stroke-width="1.0" /><circle cx="188.0" cy="158.0" fill="#03A9F4" r="5" stroke="#FFFFFF" stroke-width="1.0" /><circle cx="128.0" cy="128.0" fill="#03A9F4" r="5" stroke="#FFFFFF" stroke-width="1.0" /><circle cx="108.0" cy="158.0" fill="#03A9F4" r="5" stroke="#FFFFFF" stroke-width="1.0" /><circle cx="148.0" cy="158.0" fill="#03A9F4" r="5" stroke="#FFFFFF" stroke-width="1.0" /><circle cx="98.0" cy="198.0" fill="#03A9F4" r="5" stroke="#FFFFFF" stroke-width="1.0" /><circle cx="158.0" cy="198.0" fill="#03A9F4" r="5" stroke="#FFFFFF" stroke-width="1.0" /><circle cx="88.0" cy="238.0" fill="#03A9F4" r="5" stroke="#FFFFFF" stroke-width="1.0" /><circle cx="148.0" cy="238.0" fill="#03A9F4" r="5" stroke="#FFFFFF" stroke-width="1.0" /><circle cx="128.0" cy="58.0" fill="none" r="15" stroke="#FFFFFF" stroke-width="3.0" /></svg>