<?xml version="1.0" encoding="utf-8" ?>
<svg baseProfile="tiny" height="256px" version="1.2" width="256px" xmlns="http://www.w3.org/2000/svg" xmlns:ev="http://www.w3.org/2001/xml-events" xmlns:xlink="http://www.w3.org/1999/xlink"><defs /><rect fill="#311B92" height="256" rx="8" ry="8" width="256" x="0" y="0" /><rect fill="#311B92" fill-opacity="0.3" height="140" rx="5" ry="5" stroke="#FFFFFF" stroke-width="2" width="100" x="58.0" y="58.0" /><rect fill="#FFFFFF" height="15" rx="2" ry="2" width="80" x="68.0" y="78.0" /><rect fill="#FFFFFF" height="15" rx="2" ry="2" width="80" x="68.0" y="103.0" /><rect fill="#FFFFFF" height="15" rx="2" ry="2" width="80" x="68.0" y="128.0" /><rect fill="#FFFFFF" height="15" rx="2" ry="2" width="80" x="68.0" y="153.0" /><rect fill="#FFFFFF" height="15" rx="2" ry="2" width="80" x="68.0" y="178.0" /><rect fill="#311B92" fill-opacity="0.3" height="100" rx="5" ry="5" stroke="#FFFFFF" stroke-width="2" width="70" x="158.0" y="78.0" /><rect fill="#FFFFFF" height="15" rx="2" ry="2" width="50" x="168.0" y="98.0" /><rect fill="#FFFFFF" height="15" rx="2" ry="2" width="50" x="168.0" y="128.0" /><rect fill="#FFFFFF" height="15" rx="2" ry="2" width="50" x="168.0" y="158.0" /><line stroke="#03A9F4" stroke-width="2" x1="163.0" x2="153.0" y1="98.0" y2="98.0" /><polygon fill="#03A9F4" points="153.0,98.0 143.0,93.0 143.0,103.0" /><line stroke="#03A9F4" stroke-width="2" x1="163.0" x2="153.0" y1="128.0" y2="128.0" /><polygon fill="#03A9F4" points="153.0,128.0 143.0,123.0 143.0,133.0" /><line stroke="#03A9F4" stroke-width="2" x1="163.0" x2="153.0" y1="158.0" y2="158.0" /><polygon fill="#03A9F4" points="153.0,158.0 143.0,153.0 143.0,163.0" /><text fill="#FFFFFF" font-size="14px" text-anchor="middle" x="128.0" y="78.0">Knowledge</text><text fill="#FFFFFF" font-size="12px" text-anchor="middle" x="108.0" y="48.0">Teacher</text><text fill="#FFFFFF" font-size="12px" text-anchor="middle" x="193.0" y="68.0">Student</text></svg>