<?xml version="1.0" encoding="utf-8" ?>
<svg baseProfile="tiny" height="256px" version="1.2" width="256px" xmlns="http://www.w3.org/2000/svg" xmlns:ev="http://www.w3.org/2001/xml-events" xmlns:xlink="http://www.w3.org/1999/xlink"><defs /><rect fill="#311B92" height="256" rx="8" ry="8" width="256" x="0" y="0" /><rect fill="#FFFFFF" height="25" rx="3" ry="3" stroke="#03A9F4" stroke-width="2" width="160" x="48.0" y="28.0" /><text fill="#311B92" font-size="12px" text-anchor="middle" x="128.0" y="45.5">Input Layer</text><rect fill="#03A9F4" fill-opacity="0.2" height="25" rx="3" ry="3" stroke="#FFFFFF" stroke-width="2" width="140" x="58.0" y="78.0" /><circle cx="81.3333" cy="90.5" fill="#FFFFFF" r="4" /><circle cx="104.6667" cy="90.5" fill="#FFFFFF" r="4" /><circle cx="128.0" cy="90.5" fill="#FFFFFF" r="4" /><circle cx="151.3333" cy="90.5" fill="#FFFFFF" r="4" /><circle cx="174.6667" cy="90.5" fill="#FFFFFF" r="4" /><rect fill="#03A9F4" fill-opacity="0.4" height="25" rx="3" ry="3" stroke="#FFFFFF" stroke-width="2" width="120" x="68.0" y="108.0" /><circle cx="92.0" cy="120.5" fill="#FFFFFF" r="4" /><circle cx="116.0" cy="120.5" fill="#FFFFFF" r="4" /><circle cx="140.0" cy="120.5" fill="#FFFFFF" r="4" /><circle cx="164.0" cy="120.5" fill="#FFFFFF" r="4" /><rect fill="#03A9F4" fill-opacity="0.6" height="25" rx="3" ry="3" stroke="#FFFFFF" stroke-width="2" width="100" x="78.0" y="138.0" /><circle cx="94.6667" cy="150.5" fill="#FFFFFF" r="4" /><circle cx="111.3333" cy="150.5" fill="#FFFFFF" r="4" /><circle cx="128.0" cy="150.5" fill="#FFFFFF" r="4" /><circle cx="144.6667" cy="150.5" fill="#FFFFFF" r="4" /><circle cx="161.3333" cy="150.5" fill="#FFFFFF" r="4" /><rect fill="#03A9F4" fill-opacity="0.8" height="25" rx="3" ry="3" stroke="#FFFFFF" stroke-width="2" width="120" x="68.0" y="168.0" /><circle cx="92.0" cy="180.5" fill="#FFFFFF" r="4" /><circle cx="116.0" cy="180.5" fill="#FFFFFF" r="4" /><circle cx="140.0" cy="180.5" fill="#FFFFFF" r="4" /><circle cx="164.0" cy="180.5" fill="#FFFFFF" r="4" /><rect fill="#FFFFFF" height="25" rx="3" ry="3" stroke="#03A9F4" stroke-width="2" width="100" x="78.0" y="208.0" /><text fill="#311B92" font-size="12px" text-anchor="middle" x="128.0" y="225.5">Output Layer</text><line stroke="#03A9F4" stroke-opacity="0.7" stroke-width="1.0" x1="108.0" x2="110.5" y1="53.0" y2="78.0" /><line stroke="#03A9F4" stroke-opacity="0.7" stroke-width="1.0" x1="128.0" x2="128.0" y1="53.0" y2="78.0" /><line stroke="#03A9F4" stroke-opacity="0.7" stroke-width="1.0" x1="148.0" x2="145.5" y1="53.0" y2="78.0" /><line stroke="#03A9F4" stroke-opacity="0.7" stroke-width="1.0" x1="108.0" x2="110.8571" y1="103.0" y2="108.0" /><line stroke="#03A9F4" stroke-opacity="0.7" stroke-width="1.0" x1="128.0" x2="128.0" y1="103.0" y2="108.0" /><line stroke="#03A9F4" stroke-opacity="0.7" stroke-width="1.0" x1="148.0" x2="145.1429" y1="103.0" y2="108.0" /><line stroke="#03A9F4" stroke-opacity="0.7" stroke-width="1.0" x1="108.0" x2="111.3333" y1="133.0" y2="138.0" /><line stroke="#03A9F4" stroke-opacity="0.7" stroke-width="1.0" x1="128.0" x2="128.0" y1="133.0" y2="138.0" /><line stroke="#03A9F4" stroke-opacity="0.7" stroke-width="1.0" x1="148.0" x2="144.6667" y1="133.0" y2="138.0" /><line stroke="#03A9F4" stroke-opacity="0.7" stroke-width="1.0" x1="108.0" x2="104.0" y1="163.0" y2="168.0" /><line stroke="#03A9F4" stroke-opacity="0.7" stroke-width="1.0" x1="128.0" x2="128.0" y1="163.0" y2="168.0" /><line stroke="#03A9F4" stroke-opacity="0.7" stroke-width="1.0" x1="148.0" x2="152.0" y1="163.0" y2="168.0" /><line stroke="#03A9F4" stroke-opacity="0.7" stroke-width="1.0" x1="108.0" x2="111.3333" y1="193.0" y2="208.0" /><line stroke="#03A9F4" stroke-opacity="0.7" stroke-width="1.0" x1="128.0" x2="128.0" y1="193.0" y2="208.0" /><line stroke="#03A9F4" stroke-opacity="0.7" stroke-width="1.0" x1="148.0" x2="144.6667" y1="193.0" y2="208.0" /></svg>