<?xml version="1.0" encoding="utf-8" ?>
<svg baseProfile="tiny" height="256px" version="1.2" width="256px" xmlns="http://www.w3.org/2000/svg" xmlns:ev="http://www.w3.org/2001/xml-events" xmlns:xlink="http://www.w3.org/1999/xlink"><defs /><rect fill="#311B92" height="256" rx="8" ry="8" width="256" x="0" y="0" /><circle cx="128.0" cy="88.0" fill="#311B92" fill-opacity="0.2" r="50" stroke="#FFFFFF" stroke-width="2" /><rect fill="#FFFFFF" height="5" rx="2" ry="2" width="50" x="103.0" y="78.0" /><rect fill="#FFFFFF" height="5" rx="2" ry="2" width="40" x="103.0" y="88.0" /><rect fill="#FFFFFF" height="5" rx="2" ry="2" width="30" x="103.0" y="98.0" /><circle cx="88.0" cy="168.0" fill="#311B92" fill-opacity="0.2" r="50" stroke="#FFFFFF" stroke-width="2" /><rect fill="none" height="40" stroke="#FFFFFF" stroke-width="2" width="40" x="68.0" y="148.0" /><polygon fill="#FFFFFF" points="68.0,188.0 83.0,168.0 93.0,178.0 108.0,158.0 108.0,188.0" /><circle cx="98.0" cy="158.0" fill="#03A9F4" r="5" /><circle cx="168.0" cy="168.0" fill="#311B92" fill-opacity="0.2" r="50" stroke="#FFFFFF" stroke-width="2" /><line stroke="#FFFFFF" stroke-width="2" x1="148.0" x2="148.0" y1="153.0" y2="183.0" /><line stroke="#FFFFFF" stroke-width="2" x1="158.0" x2="158.0" y1="160.0" y2="176.0" /><line stroke="#FFFFFF" stroke-width="2" x1="168.0" x2="168.0" y1="153.0" y2="183.0" /><line stroke="#FFFFFF" stroke-width="2" x1="178.0" x2="178.0" y1="160.0" y2="176.0" /><line stroke="#FFFFFF" stroke-width="2" x1="188.0" x2="188.0" y1="153.0" y2="183.0" /><line stroke="#03A9F4" stroke-dasharray="5,5" stroke-width="2" x1="128.0" x2="88.0" y1="88.0" y2="168.0" /><line stroke="#03A9F4" stroke-dasharray="5,5" stroke-width="2" x1="128.0" x2="168.0" y1="88.0" y2="168.0" /><line stroke="#03A9F4" stroke-dasharray="5,5" stroke-width="2" x1="88.0" x2="168.0" y1="168.0" y2="168.0" /><circle cx="128.0" cy="128.0" fill="#03A9F4" r="15" stroke="#FFFFFF" stroke-width="1.0" /><line stroke="#FFFFFF" stroke-width="1.0" x1="128.0" x2="128.0" y1="128.0" y2="88.0" /><line stroke="#FFFFFF" stroke-width="1.0" x1="128.0" x2="88.0" y1="128.0" y2="168.0" /><line stroke="#FFFFFF" stroke-width="1.0" x1="128.0" x2="168.0" y1="128.0" y2="168.0" /></svg>