<?xml version="1.0" encoding="utf-8" ?>
<svg baseProfile="tiny" height="256px" version="1.2" width="256px" xmlns="http://www.w3.org/2000/svg" xmlns:ev="http://www.w3.org/2001/xml-events" xmlns:xlink="http://www.w3.org/1999/xlink"><defs /><rect fill="#311B92" height="256" rx="8" ry="8" width="256" x="0" y="0" /><circle cx="16.0" cy="16.0" fill="#03A9F4" r="10" stroke="#FFFFFF" stroke-width="1.0" /><circle cx="16.0" cy="90.6667" fill="#FFFFFF" r="10" stroke="#FFFFFF" stroke-width="1.0" /><circle cx="16.0" cy="165.3333" fill="#03A9F4" r="10" stroke="#FFFFFF" stroke-width="1.0" /><circle cx="16.0" cy="240.0" fill="#FFFFFF" r="10" stroke="#FFFFFF" stroke-width="1.0" /><circle cx="90.6667" cy="16.0" fill="#FFFFFF" r="10" stroke="#FFFFFF" stroke-width="1.0" /><circle cx="90.6667" cy="60.8" fill="#03A9F4" r="10" stroke="#FFFFFF" stroke-width="1.0" /><circle cx="90.6667" cy="105.6" fill="#FFFFFF" r="10" stroke="#FFFFFF" stroke-width="1.0" /><circle cx="90.6667" cy="150.4" fill="#03A9F4" r="10" stroke="#FFFFFF" stroke-width="1.0" /><circle cx="90.6667" cy="195.2" fill="#FFFFFF" r="10" stroke="#FFFFFF" stroke-width="1.0" /><circle cx="90.6667" cy="240.0" fill="#03A9F4" r="10" stroke="#FFFFFF" stroke-width="1.0" /><circle cx="165.3333" cy="16.0" fill="#03A9F4" r="10" stroke="#FFFFFF" stroke-width="1.0" /><circle cx="165.3333" cy="60.8" fill="#FFFFFF" r="10" stroke="#FFFFFF" stroke-width="1.0" /><circle cx="165.3333" cy="105.6" fill="#03A9F4" r="10" stroke="#FFFFFF" stroke-width="1.0" /><circle cx="165.3333" cy="150.4" fill="#FFFFFF" r="10" stroke="#FFFFFF" stroke-width="1.0" /><circle cx="165.3333" cy="195.2" fill="#03A9F4" r="10" stroke="#FFFFFF" stroke-width="1.0" /><circle cx="165.3333" cy="240.0" fill="#FFFFFF" r="10" stroke="#FFFFFF" stroke-width="1.0" /><circle cx="240.0" cy="16.0" fill="#FFFFFF" r="10" stroke="#FFFFFF" stroke-width="1.0" /><circle cx="240.0" cy="90.6667" fill="#03A9F4" r="10" stroke="#FFFFFF" stroke-width="1.0" /><circle cx="240.0" cy="165.3333" fill="#FFFFFF" r="10" stroke="#FFFFFF" stroke-width="1.0" /><circle cx="240.0" cy="240.0" fill="#03A9F4" r="10" stroke="#FFFFFF" stroke-width="1.0" /><line stroke="#FFFFFF" stroke-opacity="0.6755" stroke-width="0.6667" x1="16.0" x2="90.6667" y1="16.0" y2="16.0" /><line stroke="#FFFFFF" stroke-opacity="0.1225" stroke-width="0.6667" x1="16.0" x2="90.6667" y1="16.0" y2="60.8" /><line stroke="#FFFFFF" stroke-opacity="0.3475" stroke-width="0.6667" x1="16.0" x2="90.6667" y1="16.0" y2="105.6" /><line stroke="#FFFFFF" stroke-opacity="0.3009" stroke-width="0.6667" x1="16.0" x2="90.6667" y1="16.0" y2="150.4" /><line stroke="#FFFFFF" stroke-opacity="0.7628" stroke-width="0.6667" x1="16.0" x2="90.6667" y1="16.0" y2="195.2" /><line stroke="#FFFFFF" stroke-opacity="0.709" stroke-width="0.6667" x1="16.0" x2="90.6667" y1="16.0" y2="240.0" /><line stroke="#FFFFFF" stroke-opacity="0.903" stroke-width="0.6667" x1="16.0" x2="90.6667" y1="90.6667" y2="16.0" /><line stroke="#FFFFFF" stroke-opacity="0.1782" stroke-width="0.6667" x1="16.0" x2="90.6667" y1="90.6667" y2="60.8" /><line stroke="#FFFFFF" stroke-opacity="0.4797" stroke-width="0.6667" x1="16.0" x2="90.6667" y1="90.6667" y2="105.6" /><line stroke="#FFFFFF" stroke-opacity="0.1268" stroke-width="0.6667" x1="16.0" x2="90.6667" y1="90.6667" y2="150.4" /><line stroke="#FFFFFF" stroke-opacity="0.2968" stroke-width="0.6667" x1="16.0" x2="90.6667" y1="90.6667" y2="195.2" /><line stroke="#FFFFFF" stroke-opacity="0.5548" stroke-width="0.6667" x1="16.0" x2="90.6667" y1="90.6667" y2="240.0" /><line stroke="#FFFFFF" stroke-opacity="0.1239" stroke-width="0.6667" x1="16.0" x2="90.6667" y1="165.3333" y2="16.0" /><line stroke="#FFFFFF" stroke-opacity="0.279" stroke-width="0.6667" x1="16.0" x2="90.6667" y1="165.3333" y2="60.8" /><line stroke="#FFFFFF" stroke-opacity="0.6849" stroke-width="0.6667" x1="16.0" x2="90.6667" y1="165.3333" y2="105.6" /><line stroke="#FFFFFF" stroke-opacity="0.5904" stroke-width="0.6667" x1="16.0" x2="90.6667" y1="165.3333" y2="150.4" /><line stroke="#FFFFFF" stroke-opacity="0.2984" stroke-width="0.6667" x1="16.0" x2="90.6667" y1="165.3333" y2="195.2" /><line stroke="#FFFFFF" stroke-opacity="0.6303" stroke-width="0.6667" x1="16.0" x2="90.6667" y1="165.3333" y2="240.0" /><line stroke="#FFFFFF" stroke-opacity="0.8285" stroke-width="0.6667" x1="16.0" x2="90.6667" y1="240.0" y2="16.0" /><line stroke="#FFFFFF" stroke-opacity="0.1058" stroke-width="0.6667" x1="16.0" x2="90.6667" y1="240.0" y2="60.8" /><line stroke="#FFFFFF" stroke-opacity="0.8252" stroke-width="0.6667" x1="16.0" x2="90.6667" y1="240.0" y2="105.6" /><line stroke="#FFFFFF" stroke-opacity="0.7283" stroke-width="0.6667" x1="16.0" x2="90.6667" y1="240.0" y2="150.4" /><line stroke="#FFFFFF" stroke-opacity="0.4062" stroke-width="0.6667" x1="16.0" x2="90.6667" y1="240.0" y2="195.2" /><line stroke="#FFFFFF" stroke-opacity="0.2399" stroke-width="0.6667" x1="16.0" x2="90.6667" y1="240.0" y2="240.0" /><line stroke="#FFFFFF" stroke-opacity="0.9615" stroke-width="0.6667" x1="90.6667" x2="165.3333" y1="16.0" y2="16.0" /><line stroke="#FFFFFF" stroke-opacity="0.4029" stroke-width="0.6667" x1="90.6667" x2="165.3333" y1="16.0" y2="60.8" /><line stroke="#FFFFFF" stroke-opacity="0.1835" stroke-width="0.6667" x1="90.6667" x2="165.3333" y1="16.0" y2="105.6" /><line stroke="#FFFFFF" stroke-opacity="0.187" stroke-width="0.6667" x1="90.6667" x2="165.3333" y1="16.0" y2="150.4" /><line stroke="#FFFFFF" stroke-opacity="0.8627" stroke-width="0.6667" x1="90.6667" x2="165.3333" y1="16.0" y2="195.2" /><line stroke="#FFFFFF" stroke-opacity="0.6434" stroke-width="0.6667" x1="90.6667" x2="165.3333" y1="16.0" y2="240.0" /><line stroke="#FFFFFF" stroke-opacity="0.8264" stroke-width="0.6667" x1="90.6667" x2="165.3333" y1="60.8" y2="16.0" /><line stroke="#FFFFFF" stroke-opacity="0.7568" stroke-width="0.6667" x1="90.6667" x2="165.3333" y1="60.8" y2="60.8" /><line stroke="#FFFFFF" stroke-opacity="0.5826" stroke-width="0.6667" x1="90.6667" x2="165.3333" y1="60.8" y2="105.6" /><line stroke="#FFFFFF" stroke-opacity="0.9758" stroke-width="0.6667" x1="90.6667" x2="165.3333" y1="60.8" y2="150.4" /><line stroke="#FFFFFF" stroke-opacity="0.4407" stroke-width="0.6667" x1="90.6667" x2="165.3333" y1="60.8" y2="195.2" /><line stroke="#FFFFFF" stroke-opacity="0.5968" stroke-width="0.6667" x1="90.6667" x2="165.3333" y1="60.8" y2="240.0" /><line stroke="#FFFFFF" stroke-opacity="0.8465" stroke-width="0.6667" x1="90.6667" x2="165.3333" y1="105.6" y2="16.0" /><line stroke="#FFFFFF" stroke-opacity="0.6567" stroke-width="0.6667" x1="90.6667" x2="165.3333" y1="105.6" y2="60.8" /><line stroke="#FFFFFF" stroke-opacity="0.8755" stroke-width="0.6667" x1="90.6667" x2="165.3333" y1="105.6" y2="105.6" /><line stroke="#FFFFFF" stroke-opacity="0.6196" stroke-width="0.6667" x1="90.6667" x2="165.3333" y1="105.6" y2="150.4" /><line stroke="#FFFFFF" stroke-opacity="0.7341" stroke-width="0.6667" x1="90.6667" x2="165.3333" y1="105.6" y2="195.2" /><line stroke="#FFFFFF" stroke-opacity="0.1412" stroke-width="0.6667" x1="90.6667" x2="165.3333" y1="105.6" y2="240.0" /><line stroke="#FFFFFF" stroke-opacity="0.3051" stroke-width="0.6667" x1="90.6667" x2="165.3333" y1="150.4" y2="16.0" /><line stroke="#FFFFFF" stroke-opacity="0.3604" stroke-width="0.6667" x1="90.6667" x2="165.3333" y1="150.4" y2="60.8" /><line stroke="#FFFFFF" stroke-opacity="0.1718" stroke-width="0.6667" x1="90.6667" x2="165.3333" y1="150.4" y2="105.6" /><line stroke="#FFFFFF" stroke-opacity="0.3095" stroke-width="0.6667" x1="90.6667" x2="165.3333" y1="150.4" y2="150.4" /><line stroke="#FFFFFF" stroke-opacity="0.1909" stroke-width="0.6667" x1="90.6667" x2="165.3333" y1="150.4" y2="195.2" /><line stroke="#FFFFFF" stroke-opacity="0.3502" stroke-width="0.6667" x1="90.6667" x2="165.3333" y1="150.4" y2="240.0" /><line stroke="#FFFFFF" stroke-opacity="0.6721" stroke-width="0.6667" x1="90.6667" x2="165.3333" y1="195.2" y2="16.0" /><line stroke="#FFFFFF" stroke-opacity="0.4283" stroke-width="0.6667" x1="90.6667" x2="165.3333" y1="195.2" y2="60.8" /><line stroke="#FFFFFF" stroke-opacity="0.4332" stroke-width="0.6667" x1="90.6667" x2="165.3333" y1="195.2" y2="105.6" /><line stroke="#FFFFFF" stroke-opacity="0.2886" stroke-width="0.6667" x1="90.6667" x2="165.3333" y1="195.2" y2="150.4" /><line stroke="#FFFFFF" stroke-opacity="0.3403" stroke-width="0.6667" x1="90.6667" x2="165.3333" y1="195.2" y2="195.2" /><line stroke="#FFFFFF" stroke-opacity="0.943" stroke-width="0.6667" x1="90.6667" x2="165.3333" y1="195.2" y2="240.0" /><line stroke="#FFFFFF" stroke-opacity="0.6832" stroke-width="0.6667" x1="90.6667" x2="165.3333" y1="240.0" y2="16.0" /><line stroke="#FFFFFF" stroke-opacity="0.6482" stroke-width="0.6667" x1="90.6667" x2="165.3333" y1="240.0" y2="60.8" /><line stroke="#FFFFFF" stroke-opacity="0.254" stroke-width="0.6667" x1="90.6667" x2="165.3333" y1="240.0" y2="105.6" /><line stroke="#FFFFFF" stroke-opacity="0.7562" stroke-width="0.6667" x1="90.6667" x2="165.3333" y1="240.0" y2="150.4" /><line stroke="#FFFFFF" stroke-opacity="0.2471" stroke-width="0.6667" x1="90.6667" x2="165.3333" y1="240.0" y2="195.2" /><line stroke="#FFFFFF" stroke-opacity="0.4415" stroke-width="0.6667" x1="90.6667" x2="165.3333" y1="240.0" y2="240.0" /><line stroke="#FFFFFF" stroke-opacity="0.9906" stroke-width="0.6667" x1="165.3333" x2="240.0" y1="16.0" y2="16.0" /><line stroke="#FFFFFF" stroke-opacity="0.676" stroke-width="0.6667" x1="165.3333" x2="240.0" y1="16.0" y2="90.6667" /><line stroke="#FFFFFF" stroke-opacity="0.6013" stroke-width="0.6667" x1="165.3333" x2="240.0" y1="16.0" y2="165.3333" /><line stroke="#FFFFFF" stroke-opacity="0.7162" stroke-width="0.6667" x1="165.3333" x2="240.0" y1="16.0" y2="240.0" /><line stroke="#FFFFFF" stroke-opacity="0.8586" stroke-width="0.6667" x1="165.3333" x2="240.0" y1="60.8" y2="16.0" /><line stroke="#FFFFFF" stroke-opacity="0.7984" stroke-width="0.6667" x1="165.3333" x2="240.0" y1="60.8" y2="90.6667" /><line stroke="#FFFFFF" stroke-opacity="0.3061" stroke-width="0.6667" x1="165.3333" x2="240.0" y1="60.8" y2="165.3333" /><line stroke="#FFFFFF" stroke-opacity="0.1289" stroke-width="0.6667" x1="165.3333" x2="240.0" y1="60.8" y2="240.0" /><line stroke="#FFFFFF" stroke-opacity="0.3839" stroke-width="0.6667" x1="165.3333" x2="240.0" y1="105.6" y2="16.0" /><line stroke="#FFFFFF" stroke-opacity="0.341" stroke-width="0.6667" x1="165.3333" x2="240.0" y1="105.6" y2="90.6667" /><line stroke="#FFFFFF" stroke-opacity="0.2899" stroke-width="0.6667" x1="165.3333" x2="240.0" y1="105.6" y2="165.3333" /><line stroke="#FFFFFF" stroke-opacity="0.9486" stroke-width="0.6667" x1="165.3333" x2="240.0" y1="105.6" y2="240.0" /><line stroke="#FFFFFF" stroke-opacity="0.8887" stroke-width="0.6667" x1="165.3333" x2="240.0" y1="150.4" y2="16.0" /><line stroke="#FFFFFF" stroke-opacity="0.3832" stroke-width="0.6667" x1="165.3333" x2="240.0" y1="150.4" y2="90.6667" /><line stroke="#FFFFFF" stroke-opacity="0.6899" stroke-width="0.6667" x1="165.3333" x2="240.0" y1="150.4" y2="165.3333" /><line stroke="#FFFFFF" stroke-opacity="0.4561" stroke-width="0.6667" x1="165.3333" x2="240.0" y1="150.4" y2="240.0" /><line stroke="#FFFFFF" stroke-opacity="0.9231" stroke-width="0.6667" x1="165.3333" x2="240.0" y1="195.2" y2="16.0" /><line stroke="#FFFFFF" stroke-opacity="0.513" stroke-width="0.6667" x1="165.3333" x2="240.0" y1="195.2" y2="90.6667" /><line stroke="#FFFFFF" stroke-opacity="0.3384" stroke-width="0.6667" x1="165.3333" x2="240.0" y1="195.2" y2="165.3333" /><line stroke="#FFFFFF" stroke-opacity="0.322" stroke-width="0.6667" x1="165.3333" x2="240.0" y1="195.2" y2="240.0" /><line stroke="#FFFFFF" stroke-opacity="0.6052" stroke-width="0.6667" x1="165.3333" x2="240.0" y1="240.0" y2="16.0" /><line stroke="#FFFFFF" stroke-opacity="0.3365" stroke-width="0.6667" x1="165.3333" x2="240.0" y1="240.0" y2="90.6667" /><line stroke="#FFFFFF" stroke-opacity="0.6261" stroke-width="0.6667" x1="165.3333" x2="240.0" y1="240.0" y2="165.3333" /><line stroke="#FFFFFF" stroke-opacity="0.908" stroke-width="0.6667" x1="165.3333" x2="240.0" y1="240.0" y2="240.0" /><text fill="#FFFFFF" font-size="12px" text-anchor="middle" x="16.0" y="246">Input</text><text fill="#FFFFFF" font-size="12px" text-anchor="middle" x="90.66666666666667" y="246">Hidden</text><text fill="#FFFFFF" font-size="12px" text-anchor="middle" x="165.33333333333334" y="246">Hidden</text><text fill="#FFFFFF" font-size="12px" text-anchor="middle" x="240.0" y="246">Output</text></svg>