<?xml version="1.0" encoding="utf-8" ?>
<svg baseProfile="tiny" height="256px" version="1.2" width="256px" xmlns="http://www.w3.org/2000/svg" xmlns:ev="http://www.w3.org/2001/xml-events" xmlns:xlink="http://www.w3.org/1999/xlink"><defs /><rect fill="#311B92" height="256" rx="8" ry="8" width="256" x="0" y="0" /><rect fill="#FFFFFF" height="120" rx="20" ry="20" stroke="#03A9F4" stroke-width="2" width="180" x="38.0" y="68.0" /><polygon fill="#FFFFFF" points="164.0,188.0 182.0,218.0 128.0,188.0" stroke="#03A9F4" stroke-width="2" /><rect fill="#311B92" fill-opacity="0.7" height="6" rx="2" ry="2" width="112.0" x="58.0" y="98.0" /><rect fill="#311B92" fill-opacity="0.7" height="6" rx="2" ry="2" width="84.0" x="58.0" y="114.0" /><rect fill="#311B92" fill-opacity="0.7" height="6" rx="2" ry="2" width="126.0" x="58.0" y="130.0" /><rect fill="#311B92" fill-opacity="0.7" height="6" rx="2" ry="2" width="98.0" x="58.0" y="146.0" /><text fill="#03A9F4" font-family="monospace" font-size="12px" x="48.0" y="228.0">1</text><text fill="#03A9F4" font-family="monospace" font-size="12px" x="58.0" y="228.0">0</text><text fill="#03A9F4" font-family="monospace" font-size="12px" x="68.0" y="228.0">0</text><text fill="#03A9F4" font-family="monospace" font-size="12px" x="78.0" y="228.0">1</text><text fill="#03A9F4" font-family="monospace" font-size="12px" x="88.0" y="228.0">0</text><text fill="#03A9F4" font-family="monospace" font-size="12px" x="98.0" y="228.0">1</text><text fill="#03A9F4" font-family="monospace" font-size="12px" x="108.0" y="228.0">1</text><text fill="#03A9F4" font-family="monospace" font-size="12px" x="118.0" y="228.0">0</text><text fill="#03A9F4" font-family="monospace" font-size="12px" x="128.0" y="228.0">0</text><text fill="#03A9F4" font-family="monospace" font-size="12px" x="138.0" y="228.0">1</text><text fill="#03A9F4" font-family="monospace" font-size="12px" x="148.0" y="228.0">1</text><text fill="#03A9F4" font-family="monospace" font-size="12px" x="158.0" y="228.0">0</text><text fill="#03A9F4" font-family="monospace" font-size="12px" x="168.0" y="228.0">1</text><text fill="#03A9F4" font-family="monospace" font-size="12px" x="178.0" y="228.0">0</text><text fill="#03A9F4" font-family="monospace" font-size="12px" x="188.0" y="228.0">0</text><text fill="#03A9F4" font-family="monospace" font-size="12px" x="198.0" y="228.0">1</text><text fill="#03A9F4" font-family="monospace" font-size="12px" x="208.0" y="228.0">0</text><text fill="#03A9F4" font-family="monospace" font-size="12px" x="218.0" y="228.0">0</text><text fill="#03A9F4" font-family="monospace" font-size="12px" x="228.0" y="228.0">1</text><text fill="#03A9F4" font-family="monospace" font-size="12px" x="238.0" y="228.0">0</text></svg>