<?xml version="1.0" encoding="utf-8" ?>
<svg baseProfile="tiny" height="256px" version="1.2" width="256px" xmlns="http://www.w3.org/2000/svg" xmlns:ev="http://www.w3.org/2001/xml-events" xmlns:xlink="http://www.w3.org/1999/xlink"><defs /><rect fill="#311B92" height="256" rx="8" ry="8" width="256" x="0" y="0" /><rect fill="#FFFFFF" height="70" rx="10" ry="10" stroke="#03A9F4" stroke-width="2" width="80" x="88.0" y="48.0" /><circle cx="113.0" cy="78.0" fill="#03A9F4" r="10" stroke="#FFFFFF" stroke-width="1.0" /><circle cx="143.0" cy="78.0" fill="#03A9F4" r="10" stroke="#FFFFFF" stroke-width="1.0" /><rect fill="#03A9F4" height="5" stroke="#FFFFFF" stroke-width="1.0" width="40" x="108.0" y="98.0" /><rect fill="#FFFFFF" height="80" rx="5" ry="5" stroke="#03A9F4" stroke-width="2" width="120" x="68.0" y="128.0" /><rect fill="#311B92" fill-opacity="0.3" height="50" rx="3" ry="3" stroke="#FFFFFF" stroke-width="1.0" width="80" x="88.0" y="143.0" /><circle cx="108.0" cy="158.0" fill="#03A9F4" r="5" stroke="#FFFFFF" stroke-width="1.0" /><circle cx="128.0" cy="158.0" fill="#03A9F4" r="5" stroke="#FFFFFF" stroke-width="1.0" /><circle cx="148.0" cy="158.0" fill="#03A9F4" r="5" stroke="#FFFFFF" stroke-width="1.0" /><circle cx="108.0" cy="178.0" fill="#03A9F4" r="5" stroke="#FFFFFF" stroke-width="1.0" /><circle cx="128.0" cy="178.0" fill="#03A9F4" r="5" stroke="#FFFFFF" stroke-width="1.0" /><circle cx="148.0" cy="178.0" fill="#03A9F4" r="5" stroke="#FFFFFF" stroke-width="1.0" /><rect fill="#03A9F4" fill-opacity="0.7" height="60" stroke="#FFFFFF" stroke-width="1.0" width="15" x="53.0" y="148.0" /><circle cx="60.5" cy="218.0" fill="#FFFFFF" r="10" stroke="#03A9F4" stroke-width="1.0" /><rect fill="#03A9F4" fill-opacity="0.7" height="60" stroke="#FFFFFF" stroke-width="1.0" width="15" x="188.0" y="148.0" /><circle cx="195.5" cy="218.0" fill="#FFFFFF" r="10" stroke="#03A9F4" stroke-width="1.0" /><rect fill="#03A9F4" fill-opacity="0.7" height="40" stroke="#FFFFFF" stroke-width="1.0" width="20" x="98.0" y="208.0" /><rect fill="#FFFFFF" height="10" rx="3" ry="3" stroke="#03A9F4" stroke-width="1.0" width="30" x="93.0" y="248.0" /><rect fill="#03A9F4" fill-opacity="0.7" height="40" stroke="#FFFFFF" stroke-width="1.0" width="20" x="138.0" y="208.0" /><rect fill="#FFFFFF" height="10" rx="3" ry="3" stroke="#03A9F4" stroke-width="1.0" width="30" x="133.0" y="248.0" /><line stroke="#03A9F4" stroke-opacity="0.5" stroke-width="1.0" x1="48.0" x2="63.0" y1="48.0" y2="48.0" /><line stroke="#03A9F4" stroke-opacity="0.5" stroke-width="1.0" x1="63.0" x2="63.0" y1="48.0" y2="63.0" /><line stroke="#03A9F4" stroke-opacity="0.5" stroke-width="1.0" x1="48.0" x2="63.0" y1="108.0" y2="108.0" /><line stroke="#03A9F4" stroke-opacity="0.5" stroke-width="1.0" x1="63.0" x2="63.0" y1="108.0" y2="123.0" /><line stroke="#03A9F4" stroke-opacity="0.5" stroke-width="1.0" x1="48.0" x2="63.0" y1="168.0" y2="168.0" /><line stroke="#03A9F4" stroke-opacity="0.5" stroke-width="1.0" x1="63.0" x2="63.0" y1="168.0" y2="183.0" /></svg>