<?xml version="1.0" encoding="utf-8" ?>
<svg baseProfile="tiny" height="256px" version="1.2" width="256px" xmlns="http://www.w3.org/2000/svg" xmlns:ev="http://www.w3.org/2001/xml-events" xmlns:xlink="http://www.w3.org/1999/xlink"><defs /><rect fill="#311B92" height="256" rx="8" ry="8" width="256" x="0" y="0" /><polygon fill="#311B92" fill-opacity="0.3" points="68.0,74.6667 128.0,234.6667 188.0,74.6667 188.0,54.6667 128.0,34.6667 68.0,54.6667" stroke="#FFFFFF" stroke-width="2" /><rect fill="#FFFFFF" height="50" rx="5" ry="5" stroke="#03A9F4" stroke-width="2" width="60" x="98.0" y="118.0" /><path d="M108.0,118.0 C108.0,98.0 108.0,88.0 128.0,88.0 C148.0,88.0 148.0,98.0 148.0,118.0" fill="none" stroke="#FFFFFF" stroke-linecap="round" stroke-width="3.0" /><circle cx="128.0" cy="138.0" fill="#03A9F4" r="10" stroke="#FFFFFF" stroke-width="1.0" /><rect fill="#03A9F4" height="15" stroke="#FFFFFF" stroke-width="1.0" width="5" x="125.5" y="138.0" /><path d="M118.0,145.32050807568876 A20,20 0 0,1 117.99999999999999,110.67949192431124" fill="none" stroke="#03A9F4" stroke-dasharray="3,3" stroke-opacity="0.7" stroke-width="1.0" /><path d="M113.0,153.98076211353316 A30,30 0 0,1 112.99999999999999,102.01923788646684" fill="none" stroke="#03A9F4" stroke-opacity="0.7" stroke-width="1.0" /><path d="M108.0,162.64101615137756 A40,40 0 0,1 107.99999999999999,93.35898384862247" fill="none" stroke="#03A9F4" stroke-dasharray="3,3" stroke-opacity="0.7" stroke-width="1.0" /><path d="M103.00000000000001,171.30127018922195 A50,50 0 0,1 102.99999999999997,84.69872981077808" fill="none" stroke="#03A9F4" stroke-opacity="0.7" stroke-width="1.0" /><path d="M98.00000000000001,179.96152422706632 A60,60 0 0,1 97.99999999999997,76.0384757729337" fill="none" stroke="#03A9F4" stroke-dasharray="3,3" stroke-opacity="0.7" stroke-width="1.0" /><path d="M113.0,198.0 L123.0,208.0 L143.0,183.0" fill="none" stroke="#03A9F4" stroke-linecap="round" stroke-linejoin="round" stroke-width="2" /></svg>